Coordinates
version=1
nRows=26
nColumns=30
inDegrees=yes

Units are S.I. units (second, meters, Newtons, ...)
Angles are in degrees.

endheader
time	floatyaw	floatroll	floatpitch	floatx	floaty	floatz	pro_sup_l	deviation_l	flexion_l	cmc_flexion_l	cmc_abduction_l	mp_flexion_l	ip_flexion_l	2mcp_flexion_l	2mcp_abduction_l	2pm_flexion_l	2md_flexion_l	3mcp_flexion_l	3mcp_abduction_l	3pm_flexion_l	3md_flexion_l	4mcp_flexion_l	4mcp_abduction_l	4pm_flexion_l	4md_flexion_l	5mcp_flexion_l	5mcp_abduction_l	5pm_flexion_l	5md_flexion_l
-1.495000	-160.147433	-5.066637	-73.570646	0.079169	-0.179922	-0.017025	101.247687	4.327451	-0.480654	16.271234	8.089052	-25.170062	-41.514790	29.357966	5.826233	41.979970	28.341612	23.930445	3.893619	42.943997	28.526986	13.094987	-4.108953	50.913524	35.097531	0.216979	-7.011809	61.623138	41.514907
-1.485000	-160.147433	-5.066637	-73.570646	0.078852	-0.179849	-0.017219	101.284810	4.372923	-0.504669	16.271240	8.133612	-25.152146	-41.518803	29.396995	5.846904	42.016750	28.361458	23.986610	3.897197	42.990271	28.554311	13.174188	-4.110299	50.936586	35.134307	0.308453	-7.041779	61.662075	41.538039
-1.475000	-160.147433	-5.066637	-73.570646	0.078558	-0.179804	-0.017397	101.325108	4.415495	-0.519702	16.275779	8.180416	-25.137181	-41.518380	29.414719	5.868895	42.077306	28.397677	24.040278	3.900336	43.042155	28.584196	13.235898	-4.112304	50.982056	35.182059	0.390879	-7.073839	61.721117	41.582842
-1.465000	-160.147433	-5.066637	-73.570646	0.078292	-0.179782	-0.017555	101.366387	4.452887	-0.526145	16.274808	8.232543	-25.132872	-41.515565	29.410848	5.889628	42.151591	28.453051	24.078126	3.904007	43.103324	28.623937	13.276338	-4.115788	51.046760	35.241720	0.460661	-7.102974	61.794000	41.650074
-1.455000	-160.147433	-5.066637	-73.570646	0.078052	-0.179778	-0.017694	101.410146	4.482424	-0.524135	16.262447	8.284802	-25.146338	-41.517364	29.391869	5.908332	42.227219	28.530697	24.093094	3.909127	43.176833	28.679962	13.297282	-4.121379	51.125463	35.314960	0.521168	-7.125956	61.871948	41.737178
-1.445000	-160.147433	-5.066637	-73.570646	0.077833	-0.179787	-0.017816	101.460730	4.501825	-0.513302	16.240027	8.324430	-25.180006	-41.531760	29.368914	5.926619	42.293284	28.631861	24.087448	3.915782	43.264814	28.755071	13.303936	-4.128915	51.214422	35.403599	0.581297	-7.143045	61.946756	41.838605
-1.435000	-160.147433	-5.066637	-73.570646	0.077625	-0.179806	-0.017924	101.522681	4.509966	-0.493321	16.214564	8.338191	-25.229335	-41.562438	29.353621	5.947638	42.343129	28.753382	24.071535	3.922959	43.368295	28.847340	13.301773	-4.137278	51.313252	35.508533	0.651182	-7.157572	62.012593	41.946363
-1.425000	-160.147433	-5.066637	-73.570646	0.077423	-0.179834	-0.018025	101.597761	4.507377	-0.465215	16.194005	8.321207	-25.284090	-41.605773	29.353589	5.974082	42.376216	28.886877	24.059048	3.929074	43.487059	28.951202	13.294328	-4.144851	51.424036	35.628640	0.736866	-7.173726	62.067055	42.051500
-1.415000	-160.147433	-5.066637	-73.570646	0.077229	-0.179868	-0.018120	101.683419	4.496264	-0.432529	16.182493	8.281302	-25.332837	-41.652346	29.369603	6.006181	42.398923	29.020725	24.061371	3.933039	43.619558	29.059976	13.283413	-4.150427	51.548366	35.760092	0.836627	-7.193946	62.112298	42.146692
-1.405000	-160.147433	-5.066637	-73.570646	0.077051	-0.179906	-0.018210	101.773696	4.480041	-0.401140	16.178430	8.235538	-25.368382	-41.692267	29.396105	6.041070	42.423295	29.144022	24.083797	3.935227	43.762884	29.168338	13.271482	-4.154070	51.684382	35.896426	0.941209	-7.217440	62.155778	42.228839
-1.395000	-160.147433	-5.066637	-73.570646	0.076899	-0.179944	-0.018294	101.862159	4.462574	-0.377344	16.176062	8.201107	-25.391141	-41.720833	29.424651	6.074107	42.463044	29.250232	24.124992	3.937619	43.912874	29.273377	13.263951	-4.157350	51.825928	36.029444	1.038283	-7.240622	62.208917	42.299868
-1.385000	-160.147433	-5.066637	-73.570646	0.076779	-0.179975	-0.018371	101.945060	4.447520	-0.365256	16.169145	8.186616	-25.408401	-41.740698	29.448466	6.101325	42.527766	29.338315	24.179183	3.942809	44.064315	29.373777	13.268894	-4.162556	51.964373	36.150762	1.118900	-7.259147	62.282759	42.364738
-1.375000	-160.147433	-5.066637	-73.570646	0.076691	-0.179995	-0.018443	102.022661	4.437966	-0.365256	16.154296	8.189135	-25.429763	-41.759293	29.465653	6.121299	42.618013	29.411094	24.239331	3.952293	44.211072	29.467924	13.293528	-4.171226	52.091699	36.253641	1.182000	-7.270303	62.382046	42.427820
-1.365000	-160.147433	-5.066637	-73.570646	0.076629	-0.179999	-0.018509	102.097805	4.436271	-0.374410	16.132140	8.198178	-25.461467	-41.783643	29.479532	6.135325	42.724114	29.472861	24.299693	3.965179	44.346191	29.552586	13.339837	-4.182947	52.202848	36.334672	1.234118	-7.274279	62.501257	42.490390
-1.355000	-160.147433	-5.066637	-73.570646	0.076585	-0.179985	-0.018570	102.172816	4.443954	-0.388433	16.105906	8.203181	-25.503061	-41.816347	29.496354	6.146147	42.829979	29.528444	24.357044	3.978314	44.462676	29.623589	13.402856	-4.195364	52.296367	36.394785	1.284740	-7.273691	62.625658	42.551086
-1.345000	-160.147433	-5.066637	-73.570646	0.076551	-0.179957	-0.018625	102.246996	4.461671	-0.403945	16.078852	8.199286	-25.548376	-41.855199	29.522000	6.156383	42.920334	29.583801	24.410767	3.987857	44.555484	29.678353	13.473268	-4.205400	52.373706	36.438907	1.340816	-7.271816	62.737278	42.608366
-1.335000	-160.147433	-5.066637	-73.570646	0.076520	-0.179919	-0.018671	102.316485	4.489395	-0.419786	16.052603	8.188190	-25.589850	-41.895962	29.559437	6.167507	42.987625	29.645939	24.462207	3.991222	44.624055	29.718384	13.542604	-4.210804	52.437937	36.473925	1.403916	-7.270718	62.822383	42.662192
-1.325000	-160.147433	-5.066637	-73.570646	0.076489	-0.179880	-0.018708	102.376302	4.526708	-0.436777	16.027507	8.174794	-25.623028	-41.935624	29.607719	6.179458	43.034803	29.720280	24.513438	3.988176	44.673505	29.749536	13.607255	-4.211070	52.492314	36.505585	1.470898	-7.270320	62.876220	42.713178
-1.315000	-160.147433	-5.066637	-73.570646	0.076457	-0.179845	-0.018733	102.422871	4.572846	-0.456150	16.004259	8.163057	-25.648235	-41.973612	29.662290	6.190761	43.072361	29.806255	24.565436	3.980605	44.712862	29.779403	13.668493	-4.207359	52.538844	36.535873	1.536388	-7.268854	62.902790	42.760090
-1.305000	-160.147433	-5.066637	-73.570646	0.076424	-0.179815	-0.018746	102.455284	4.626302	-0.477640	15.984987	8.154005	-25.668730	-42.010527	29.715960	6.199197	43.111030	29.894417	24.616162	3.971351	44.750455	29.813197	13.728578	-4.201758	52.577151	36.562387	1.594841	-7.264350	62.910514	42.798249
-1.295000	-160.147433	-5.066637	-73.570646	0.076393	-0.179788	-0.018749	102.474870	4.684294	-0.498439	15.972637	8.146279	-25.687240	-42.046093	29.760199	6.202960	43.153892	29.968050	24.659637	3.962969	44.788601	29.850526	13.785824	-4.196348	52.604151	36.580167	1.641199	-7.256230	62.906839	42.820801
-1.285000	-160.147433	-5.066637	-73.570646	0.076368	-0.179758	-0.018747	102.483896	4.742727	-0.513755	15.968998	8.137845	-25.703571	-42.078260	29.786767	6.201734	43.192325	30.009361	24.687100	3.957014	44.820891	29.885111	13.832237	-4.192527	52.615244	36.585156	1.670910	-7.246052	62.895058	42.822576
-1.275000	-160.147433	-5.066637	-73.570646	0.076352	-0.179720	-0.018749	102.484577	4.797085	-0.518765	15.972675	8.127468	-25.714735	-42.103877	29.789756	6.197068	43.208608	30.007241	24.690310	3.954018	44.834537	29.907994	13.855949	-4.190832	52.607195	36.577516	1.680845	-7.237041	62.874824	42.804143
-1.265000	-160.147433	-5.066637	-73.570646	0.076348	-0.179670	-0.018760	102.478946	4.843943	-0.510794	15.978263	8.115506	-25.716957	-42.119773	29.767707	6.191955	43.184413	29.962524	24.665631	3.953944	44.817406	29.912715	13.847633	-4.191246	52.581448	36.562777	1.671576	-7.232719	62.845128	42.773269
-1.255000	-160.147433	-5.066637	-73.570646	0.076353	-0.179609	-0.018786	102.469374	4.882200	-0.490397	15.977399	8.103913	-25.707933	-42.123226	29.724975	6.189937	43.110901	29.888126	24.616765	3.956670	44.766088	29.899536	13.807352	-4.193697	52.545536	36.549784	1.649566	-7.235287	62.806940	42.742391
-1.245000	-160.147433	-5.066637	-73.570646	0.076362	-0.179540	-0.018829	102.459214	4.913178	-0.460824	15.961618	8.095395	-25.688110	-42.112125	29.671313	6.194039	42.995087	29.804182	24.554517	3.962112	44.690146	29.876074	13.747457	-4.198300	52.510958	36.546291	1.626882	-7.244436	62.763663	42.723248
